<?xml version="1.0" encoding="utf-8"?>
<!-- Generator: Adobe Illustrator 22.0.1, SVG Export Plug-In . SVG Version: 6.00 Build 0)  -->
<svg version="1.1" id="격리_모드" xmlns="http://www.w3.org/2000/svg" xmlns:xlink="http://www.w3.org/1999/xlink" x="0px"
	 y="0px" viewBox="0 0 348.5 340.8" style="enable-background:new 0 0 348.5 340.8;" xml:space="preserve">
<style type="text/css">
	.st0{fill:url(#SVGID_1_);}
	.st1{fill:url(#SVGID_2_);}
	.st2{fill:url(#SVGID_3_);}
	.st3{fill:url(#SVGID_4_);}
	.st4{fill:url(#SVGID_5_);}
	.st5{fill:url(#SVGID_6_);}
	.st6{opacity:0.7;fill:url(#SVGID_7_);}
	.st7{opacity:0.7;fill:url(#SVGID_8_);}
	.st8{fill:url(#SVGID_9_);}
	.st9{fill:url(#SVGID_10_);}
	.st10{fill:url(#SVGID_11_);}
	.st11{fill:url(#SVGID_12_);}
	.st12{fill:url(#SVGID_13_);}
</style>
<g id="_x3C_Group_x3E__16_">
	
		<radialGradient id="SVGID_1_" cx="18891.8164" cy="6388.563" r="12.8375" gradientTransform="matrix(5.000000e-04 -0.1677 0.1925 5.000000e-04 -1021.2911 3292.2402)" gradientUnits="userSpaceOnUse">
		<stop  offset="2.192280e-03" style="stop-color:#FFFFFF"/>
		<stop  offset="0.9993" style="stop-color:#000000;stop-opacity:0"/>
	</radialGradient>
	<path class="st0" d="M218,124.6c1.7,0,3,1.2,3,2.7c0,1.5-1.4,2.6-3,2.6c-1.7,0-3-1.2-3-2.7S216.3,124.6,218,124.6z"/>
	
		<radialGradient id="SVGID_2_" cx="18654.3711" cy="5297.1138" r="40.1606" gradientTransform="matrix(5.000000e-04 -0.1677 0.1925 5.000000e-04 -1021.2911 3292.2402)" gradientUnits="userSpaceOnUse">
		<stop  offset="0" style="stop-color:#FFFFFF"/>
		<stop  offset="5.451204e-02" style="stop-color:#E7E7E7;stop-opacity:0.9455"/>
		<stop  offset="0.2044" style="stop-color:#ABABAB;stop-opacity:0.7955"/>
		<stop  offset="0.3534" style="stop-color:#777777;stop-opacity:0.6464"/>
		<stop  offset="0.4982" style="stop-color:#4C4C4C;stop-opacity:0.5015"/>
		<stop  offset="0.6377" style="stop-color:#2B2B2B;stop-opacity:0.3618"/>
		<stop  offset="0.7706" style="stop-color:#131313;stop-opacity:0.2288"/>
		<stop  offset="0.8942" style="stop-color:#050505;stop-opacity:0.1052"/>
		<stop  offset="0.9993" style="stop-color:#000000;stop-opacity:0"/>
	</radialGradient>
	<path class="st1" d="M7.7,159.8c4.3,0,7.7,3,7.7,6.8c0,3.7-3.5,6.7-7.7,6.7c-4.3,0-7.7-3-7.7-6.8C0,162.8,3.5,159.8,7.7,159.8z"/>
	
		<radialGradient id="SVGID_3_" cx="18911.1973" cy="7009.7954" r="56.8598" gradientTransform="matrix(5.000000e-04 -0.1677 0.1925 5.000000e-04 -1021.2911 3292.2402)" gradientUnits="userSpaceOnUse">
		<stop  offset="0" style="stop-color:#FFFFFF"/>
		<stop  offset="5.451204e-02" style="stop-color:#E7E7E7;stop-opacity:0.9455"/>
		<stop  offset="0.2044" style="stop-color:#ABABAB;stop-opacity:0.7955"/>
		<stop  offset="0.3534" style="stop-color:#777777;stop-opacity:0.6464"/>
		<stop  offset="0.4982" style="stop-color:#4C4C4C;stop-opacity:0.5015"/>
		<stop  offset="0.6377" style="stop-color:#2B2B2B;stop-opacity:0.3618"/>
		<stop  offset="0.7706" style="stop-color:#131313;stop-opacity:0.2288"/>
		<stop  offset="0.8942" style="stop-color:#050505;stop-opacity:0.1052"/>
		<stop  offset="0.9993" style="stop-color:#000000;stop-opacity:0"/>
	</radialGradient>
	<path class="st2" d="M337.6,114.8c6,0,10.9,4.3,10.9,9.6c0,5.3-4.9,9.5-11,9.5c-6,0-10.9-4.3-10.9-9.6
		C326.6,119,331.5,114.8,337.6,114.8z"/>
	
		<radialGradient id="SVGID_4_" cx="19594.1719" cy="6477.0425" r="56.8599" gradientTransform="matrix(5.000000e-04 -0.1677 0.1925 5.000000e-04 -1021.2911 3292.2402)" gradientUnits="userSpaceOnUse">
		<stop  offset="0" style="stop-color:#FFFFFF"/>
		<stop  offset="5.451204e-02" style="stop-color:#E7E7E7;stop-opacity:0.9455"/>
		<stop  offset="0.2044" style="stop-color:#ABABAB;stop-opacity:0.7955"/>
		<stop  offset="0.3534" style="stop-color:#777777;stop-opacity:0.6464"/>
		<stop  offset="0.4982" style="stop-color:#4C4C4C;stop-opacity:0.5015"/>
		<stop  offset="0.6377" style="stop-color:#2B2B2B;stop-opacity:0.3618"/>
		<stop  offset="0.7706" style="stop-color:#131313;stop-opacity:0.2288"/>
		<stop  offset="0.8942" style="stop-color:#050505;stop-opacity:0.1052"/>
		<stop  offset="0.9993" style="stop-color:#000000;stop-opacity:0"/>
	</radialGradient>
	<path class="st3" d="M235.4,0c6,0,10.9,4.3,10.9,9.6c0,5.3-4.9,9.5-11,9.5c-6,0-10.9-4.3-10.9-9.6C224.4,4.2,229.3,0,235.4,0z"/>
	
		<radialGradient id="SVGID_5_" cx="37706.3359" cy="1725.1309" r="56.8504" gradientTransform="matrix(2.940000e-02 -5.080000e-02 0.298 0.1721 -1387.33 1752.4595)" gradientUnits="userSpaceOnUse">
		<stop  offset="0" style="stop-color:#FFFFFF"/>
		<stop  offset="5.451204e-02" style="stop-color:#E7E7E7;stop-opacity:0.9455"/>
		<stop  offset="0.2044" style="stop-color:#ABABAB;stop-opacity:0.7955"/>
		<stop  offset="0.3534" style="stop-color:#777777;stop-opacity:0.6464"/>
		<stop  offset="0.4982" style="stop-color:#4C4C4C;stop-opacity:0.5015"/>
		<stop  offset="0.6377" style="stop-color:#2B2B2B;stop-opacity:0.3618"/>
		<stop  offset="0.7706" style="stop-color:#131313;stop-opacity:0.2288"/>
		<stop  offset="0.8942" style="stop-color:#050505;stop-opacity:0.1052"/>
		<stop  offset="0.9993" style="stop-color:#000000;stop-opacity:0"/>
	</radialGradient>
	<path class="st4" d="M237,131c9.4,5.4,16.2,11.1,15.3,12.7c-0.9,1.6-9.3-1.5-18.6-6.9c-9.4-5.4-16.2-11.1-15.3-12.7
		C219.3,122.5,227.6,125.6,237,131z"/>
	
		<radialGradient id="SVGID_6_" cx="35054.5234" cy="-2531.0166" r="56.8773" gradientTransform="matrix(5.790000e-02 -9.300000e-03 5.490000e-02 0.3397 -1834.3903 1398.3708)" gradientUnits="userSpaceOnUse">
		<stop  offset="0" style="stop-color:#FFFFFF"/>
		<stop  offset="5.451204e-02" style="stop-color:#E7E7E7;stop-opacity:0.9455"/>
		<stop  offset="0.2044" style="stop-color:#ABABAB;stop-opacity:0.7955"/>
		<stop  offset="0.3534" style="stop-color:#777777;stop-opacity:0.6464"/>
		<stop  offset="0.4982" style="stop-color:#4C4C4C;stop-opacity:0.5015"/>
		<stop  offset="0.6377" style="stop-color:#2B2B2B;stop-opacity:0.3618"/>
		<stop  offset="0.7706" style="stop-color:#131313;stop-opacity:0.2288"/>
		<stop  offset="0.8942" style="stop-color:#050505;stop-opacity:0.1052"/>
		<stop  offset="0.9993" style="stop-color:#000000;stop-opacity:0"/>
	</radialGradient>
	<path class="st5" d="M59.6,212c1.7,10.7,1.6,19.6-0.2,19.8c-1.8,0.3-4.7-8.1-6.4-18.8c-1.7-10.7-1.6-19.6,0.2-19.8
		C55,193,57.9,201.4,59.6,212z"/>
	
		<radialGradient id="SVGID_7_" cx="8573.0918" cy="-4845.5542" r="56.8695" gradientTransform="matrix(2.380000e-02 5.360000e-02 -0.3145 0.1398 -1501.178 477.892)" gradientUnits="userSpaceOnUse">
		<stop  offset="0" style="stop-color:#FFFFFF"/>
		<stop  offset="5.451204e-02" style="stop-color:#E7E7E7;stop-opacity:0.9455"/>
		<stop  offset="0.2044" style="stop-color:#ABABAB;stop-opacity:0.7955"/>
		<stop  offset="0.3534" style="stop-color:#777777;stop-opacity:0.6464"/>
		<stop  offset="0.4982" style="stop-color:#4C4C4C;stop-opacity:0.5015"/>
		<stop  offset="0.6377" style="stop-color:#2B2B2B;stop-opacity:0.3618"/>
		<stop  offset="0.7706" style="stop-color:#131313;stop-opacity:0.2288"/>
		<stop  offset="0.8942" style="stop-color:#050505;stop-opacity:0.1052"/>
		<stop  offset="0.9993" style="stop-color:#000000;stop-opacity:0"/>
	</radialGradient>
	<path class="st6" d="M228.1,263c-9.9,4.4-18.5,6.6-19.2,4.9c-0.7-1.7,6.7-6.6,16.5-11c9.9-4.4,18.5-6.6,19.2-4.9
		C245.4,253.7,238,258.7,228.1,263z"/>
	
		<radialGradient id="SVGID_8_" cx="4257.4385" cy="-4760.874" r="56.8697" gradientTransform="matrix(2.380000e-02 5.360000e-02 -0.3145 0.1398 -1501.178 477.892)" gradientUnits="userSpaceOnUse">
		<stop  offset="0" style="stop-color:#FFFFFF"/>
		<stop  offset="5.451204e-02" style="stop-color:#E7E7E7;stop-opacity:0.9455"/>
		<stop  offset="0.2044" style="stop-color:#ABABAB;stop-opacity:0.7955"/>
		<stop  offset="0.3534" style="stop-color:#777777;stop-opacity:0.6464"/>
		<stop  offset="0.4982" style="stop-color:#4C4C4C;stop-opacity:0.5015"/>
		<stop  offset="0.6377" style="stop-color:#2B2B2B;stop-opacity:0.3618"/>
		<stop  offset="0.7706" style="stop-color:#131313;stop-opacity:0.2288"/>
		<stop  offset="0.8942" style="stop-color:#050505;stop-opacity:0.1052"/>
		<stop  offset="0.9993" style="stop-color:#000000;stop-opacity:0"/>
	</radialGradient>
	<path class="st7" d="M98.8,43.6c-9.9,4.4-18.5,6.6-19.2,4.9c-0.7-1.7,6.7-6.6,16.5-11c9.9-4.4,18.5-6.6,19.2-4.9
		C116.1,34.3,108.7,39.2,98.8,43.6z"/>
	
		<radialGradient id="SVGID_9_" cx="19524.6055" cy="6150.0459" r="56.8599" gradientTransform="matrix(5.000000e-04 -0.1677 0.1925 5.000000e-04 -1021.2911 3292.2402)" gradientUnits="userSpaceOnUse">
		<stop  offset="0" style="stop-color:#FFFFFF"/>
		<stop  offset="5.451204e-02" style="stop-color:#E7E7E7;stop-opacity:0.9455"/>
		<stop  offset="0.2044" style="stop-color:#ABABAB;stop-opacity:0.7955"/>
		<stop  offset="0.3534" style="stop-color:#777777;stop-opacity:0.6464"/>
		<stop  offset="0.4982" style="stop-color:#4C4C4C;stop-opacity:0.5015"/>
		<stop  offset="0.6377" style="stop-color:#2B2B2B;stop-opacity:0.3618"/>
		<stop  offset="0.7706" style="stop-color:#131313;stop-opacity:0.2288"/>
		<stop  offset="0.8942" style="stop-color:#050505;stop-opacity:0.1052"/>
		<stop  offset="0.9993" style="stop-color:#000000;stop-opacity:0"/>
	</radialGradient>
	<path class="st8" d="M172.4,11.5c6,0,10.9,4.3,10.9,9.6c0,5.3-4.9,9.5-11,9.5c-6,0-10.9-4.3-10.9-9.6
		C161.4,15.7,166.3,11.5,172.4,11.5z"/>
	
		<radialGradient id="SVGID_10_" cx="17734.3672" cy="5744.1929" r="117.984" gradientTransform="matrix(5.000000e-04 -0.1677 0.1925 5.000000e-04 -1021.2911 3292.2402)" gradientUnits="userSpaceOnUse">
		<stop  offset="0" style="stop-color:#FFFFFF"/>
		<stop  offset="5.451204e-02" style="stop-color:#E7E7E7;stop-opacity:0.9455"/>
		<stop  offset="0.2044" style="stop-color:#ABABAB;stop-opacity:0.7955"/>
		<stop  offset="0.3534" style="stop-color:#777777;stop-opacity:0.6464"/>
		<stop  offset="0.4982" style="stop-color:#4C4C4C;stop-opacity:0.5015"/>
		<stop  offset="0.6377" style="stop-color:#2B2B2B;stop-opacity:0.3618"/>
		<stop  offset="0.7706" style="stop-color:#131313;stop-opacity:0.2288"/>
		<stop  offset="0.8942" style="stop-color:#050505;stop-opacity:0.1052"/>
		<stop  offset="0.9993" style="stop-color:#000000;stop-opacity:0"/>
	</radialGradient>
	<path class="st9" d="M93.4,301.3c12.5,0,22.7,8.9,22.7,19.9c0,10.9-10.2,19.8-22.8,19.7c-12.5,0-22.7-8.9-22.7-19.9
		C70.7,310.1,80.8,301.2,93.4,301.3z"/>
	
		<radialGradient id="SVGID_11_" cx="18431.7031" cy="6753.6479" r="40.1605" gradientTransform="matrix(5.000000e-04 -0.1677 0.1925 5.000000e-04 -1021.2911 3292.2402)" gradientUnits="userSpaceOnUse">
		<stop  offset="0" style="stop-color:#FFFFFF"/>
		<stop  offset="5.451204e-02" style="stop-color:#E7E7E7;stop-opacity:0.9455"/>
		<stop  offset="0.2044" style="stop-color:#ABABAB;stop-opacity:0.7955"/>
		<stop  offset="0.3534" style="stop-color:#777777;stop-opacity:0.6464"/>
		<stop  offset="0.4982" style="stop-color:#4C4C4C;stop-opacity:0.5015"/>
		<stop  offset="0.6377" style="stop-color:#2B2B2B;stop-opacity:0.3618"/>
		<stop  offset="0.7706" style="stop-color:#131313;stop-opacity:0.2288"/>
		<stop  offset="0.8942" style="stop-color:#050505;stop-opacity:0.1052"/>
		<stop  offset="0.9993" style="stop-color:#000000;stop-opacity:0"/>
	</radialGradient>
	<path class="st10" d="M288,197.9c4.3,0,7.7,3,7.7,6.8c0,3.7-3.5,6.7-7.7,6.7c-4.3,0-7.7-3-7.7-6.8
		C280.3,200.9,283.8,197.9,288,197.9z"/>
	
		<radialGradient id="SVGID_12_" cx="17905.875" cy="6688.98" r="94.2393" gradientTransform="matrix(5.000000e-04 -0.1677 0.1925 5.000000e-04 -1021.2911 3292.2402)" gradientUnits="userSpaceOnUse">
		<stop  offset="0" style="stop-color:#FFFFFF"/>
		<stop  offset="5.451204e-02" style="stop-color:#E7E7E7;stop-opacity:0.9455"/>
		<stop  offset="0.2044" style="stop-color:#ABABAB;stop-opacity:0.7955"/>
		<stop  offset="0.3534" style="stop-color:#777777;stop-opacity:0.6464"/>
		<stop  offset="0.4982" style="stop-color:#4C4C4C;stop-opacity:0.5015"/>
		<stop  offset="0.6377" style="stop-color:#2B2B2B;stop-opacity:0.3618"/>
		<stop  offset="0.7706" style="stop-color:#131313;stop-opacity:0.2288"/>
		<stop  offset="0.8942" style="stop-color:#050505;stop-opacity:0.1052"/>
		<stop  offset="0.9993" style="stop-color:#000000;stop-opacity:0"/>
	</radialGradient>
	<path class="st11" d="M275.3,277c10,0,18.1,7.1,18.1,15.9c0,8.7-8.2,15.8-18.2,15.8s-18.1-7.1-18.1-15.9
		C257.2,284,265.3,276.9,275.3,277z"/>
	
		<radialGradient id="SVGID_13_" cx="17973" cy="6699.626" r="94.2392" gradientTransform="matrix(5.000000e-04 -0.1677 0.1925 5.000000e-04 -1021.2911 3292.2402)" gradientUnits="userSpaceOnUse">
		<stop  offset="0" style="stop-color:#FFFFFF"/>
		<stop  offset="5.451204e-02" style="stop-color:#E7E7E7;stop-opacity:0.9455"/>
		<stop  offset="0.2044" style="stop-color:#ABABAB;stop-opacity:0.7955"/>
		<stop  offset="0.3534" style="stop-color:#777777;stop-opacity:0.6464"/>
		<stop  offset="0.4982" style="stop-color:#4C4C4C;stop-opacity:0.5015"/>
		<stop  offset="0.6377" style="stop-color:#2B2B2B;stop-opacity:0.3618"/>
		<stop  offset="0.7706" style="stop-color:#131313;stop-opacity:0.2288"/>
		<stop  offset="0.8942" style="stop-color:#050505;stop-opacity:0.1052"/>
		<stop  offset="0.9993" style="stop-color:#000000;stop-opacity:0"/>
	</radialGradient>
	<path class="st12" d="M277.4,265.7c10,0,18.1,7.1,18.1,15.9c0,8.7-8.2,15.8-18.2,15.8c-10,0-18.1-7.1-18.1-15.9
		C259.3,272.7,267.4,265.7,277.4,265.7z"/>
</g>
</svg>
