<?xml version="1.0" encoding="utf-8"?>
<!-- Generator: Adobe Illustrator 22.0.1, SVG Export Plug-In . SVG Version: 6.00 Build 0)  -->
<svg version="1.1" id="OBJECTS" xmlns="http://www.w3.org/2000/svg" xmlns:xlink="http://www.w3.org/1999/xlink" x="0px" y="0px"
	 viewBox="0 0 150.3 100.5" style="enable-background:new 0 0 150.3 100.5;" xml:space="preserve">
<style type="text/css">
	.st0{fill:url(#SVGID_1_);}
	.st1{fill:#7E4DFF;}
	.st2{opacity:0.3;fill:url(#SVGID_2_);}
	.st3{opacity:0.3;fill:url(#SVGID_3_);}
	.st4{opacity:0.3;fill:url(#SVGID_4_);}
</style>
<g>
	<linearGradient id="SVGID_1_" gradientUnits="userSpaceOnUse" x1="74.2" y1="100.417" x2="74.2" y2="-9.094947e-13">
		<stop  offset="0" style="stop-color:#D6C2FF;stop-opacity:0.5"/>
		<stop  offset="1" style="stop-color:#FFFFFF"/>
	</linearGradient>
	<path class="st0" d="M2.5,100.4h0.3h14.1h0.3h14.1h0.3h14.1h0.3h14.1H60h14.1h0.3h14.1h0.3h14.1h0.3H117h0.3h14.1h0.3h14.3V86.1
		v-0.3V71.8v-0.3V57.5v-0.3V43.2v-0.3V28.9v-0.3V14.6v-0.3V0h-14.3h-0.3h-14.1H117h-14.1h-0.3H88.6h-0.3H74.3h-0.3H60h-0.3H45.7
		h-0.3H31.4h-0.3H17.1h-0.3H2.8H2.5 M117.3,0.3h14.1v14.1h-14.1V0.3z M131.3,28.6h-14.1V14.6h14.1V28.6z M131.3,42.9h-14.1V28.9
		h14.1V42.9z M131.3,57.2h-14.1V43.2h14.1V57.2z M131.3,71.5h-14.1V57.5h14.1V71.5z M131.3,85.9h-14.1V71.8h14.1V85.9z M117,28.6
		h-14.1V14.6H117V28.6z M117,42.9h-14.1V28.9H117V42.9z M117,57.2h-14.1V43.2H117V57.2z M117,71.5h-14.1V57.5H117V71.5z M102.7,42.9
		H88.6V28.9h14.1V42.9z M102.7,57.2H88.6V43.2h14.1V57.2z M2.5,43.2v14.1 M2.8,43.2h14.1v14.1H2.8V43.2z M17.1,43.2h14.1v14.1H17.1
		V43.2z M31.4,43.2h14.1v14.1H31.4V43.2z M45.7,43.2h14.1v14.1H45.7V43.2z M60,43.2h14.1v14.1H60V43.2z M74.3,43.2h14.1v14.1H74.3
		V43.2z M88.4,42.9H74.3V28.9h14.1V42.9z M74.1,42.9H60V28.9h14.1V42.9z M59.8,42.9H45.7V28.9h14.1V42.9z M45.5,42.9H31.4V28.9h14.1
		V42.9z M31.1,42.9H17.1V28.9h14.1V42.9z M16.8,42.9H2.8V28.9h14.1V42.9z M2.5,28.9v14.1 M2.5,57.5v14.1 M2.8,57.5h14.1v14.1H2.8
		V57.5z M17.1,57.5h14.1v14.1H17.1V57.5z M31.4,57.5h14.1v14.1H31.4V57.5z M45.7,57.5h14.1v14.1H45.7V57.5z M60,57.5h14.1v14.1H60
		V57.5z M74.3,57.5h14.1v14.1H74.3V57.5z M88.6,57.5h14.1v14.1H88.6V57.5z M102.7,28.6H88.6V14.6h14.1V28.6z M88.4,28.6H74.3V14.6
		h14.1V28.6z M74.1,28.6H60V14.6h14.1V28.6z M59.8,28.6H45.7V14.6h14.1V28.6z M45.5,28.6H31.4V14.6h14.1V28.6z M31.1,28.6H17.1V14.6
		h14.1V28.6z M16.8,28.6H2.8V14.6h14.1V28.6z M2.5,14.6v14.1 M2.5,71.8v14.1 M2.8,71.8h14.1v14.1H2.8V71.8z M17.1,71.8h14.1v14.1
		H17.1V71.8z M31.4,71.8h14.1v14.1H31.4V71.8z M45.7,71.8h14.1v14.1H45.7V71.8z M60,71.8h14.1v14.1H60V71.8z M74.3,71.8h14.1v14.1
		H74.3V71.8z M88.6,71.8h14.1v14.1H88.6V71.8z M102.9,71.8H117v14.1h-14.1V71.8z M102.9,0.3H117v14.1h-14.1V0.3z M88.6,0.3h14.1
		v14.1H88.6V0.3z M74.3,0.3h14.1v14.1H74.3V0.3z M60,0.3h14.1v14.1H60V0.3z M45.7,0.3h14.1v14.1H45.7V0.3z M31.4,0.3h14.1v14.1H31.4
		V0.3z M17.1,0.3h14.1v14.1H17.1V0.3z M2.8,0.3h14.1v14.1H2.8V0.3z M2.5,0.3v14.1 M2.5,86.1v14.1 M16.8,100.2H2.8V86.1h14.1V100.2z
		 M31.1,100.2H17.1V86.1h14.1V100.2z M45.5,100.2H31.4V86.1h14.1V100.2z M59.8,100.2H45.7V86.1h14.1V100.2z M74.1,100.2H60V86.1
		h14.1V100.2z M88.4,100.2H74.3V86.1h14.1V100.2z M102.7,100.2H88.6V86.1h14.1V100.2z M117,100.2h-14.1V86.1H117V100.2z
		 M131.3,100.2h-14.1V86.1h14.1V100.2z M145.6,100.2h-14.1V86.1h14.1V100.2z M145.6,85.9h-14.1V71.8h14.1V85.9z M145.6,71.5h-14.1
		V57.5h14.1V71.5z M145.6,57.2h-14.1V43.2h14.1V57.2z M145.6,42.9h-14.1V28.9h14.1V42.9z M145.6,28.6h-14.1V14.6h14.1V28.6z
		 M131.6,14.3V0.3h14.1v14.1H131.6z"/>
	<g>
		<g>
			<path class="st1" d="M5.1,55.6c0,1.4-1.1,2.5-2.5,2.5S0,57,0,55.6c0-1.4,1.1-2.5,2.5-2.5S5.1,54.2,5.1,55.6z"/>
		</g>
		<g>
			<path class="st1" d="M19.6,32.9c0,1.4-1.1,2.5-2.5,2.5s-2.5-1.1-2.5-2.5c0-1.4,1.1-2.5,2.5-2.5S19.6,31.5,19.6,32.9z"/>
		</g>
		<g>
			<path class="st1" d="M33.7,39.3c0,1.4-1.1,2.5-2.5,2.5c-1.4,0-2.5-1.1-2.5-2.5c0-1.4,1.1-2.5,2.5-2.5
				C32.6,36.8,33.7,37.9,33.7,39.3z"/>
		</g>
		<g>
			<path class="st1" d="M48,26.2c0,1.4-1.1,2.5-2.5,2.5s-2.5-1.1-2.5-2.5c0-1.4,1.1-2.5,2.5-2.5S48,24.8,48,26.2z"/>
		</g>
		<g>
			<path class="st1" d="M62.4,33.8c0,1.4-1.1,2.5-2.5,2.5c-1.4,0-2.5-1.1-2.5-2.5c0-1.4,1.1-2.5,2.5-2.5
				C61.3,31.3,62.4,32.4,62.4,33.8z"/>
		</g>
		<g>
			<path class="st1" d="M76.9,55.3c0,1.4-1.1,2.5-2.5,2.5c-1.4,0-2.5-1.1-2.5-2.5c0-1.4,1.1-2.5,2.5-2.5
				C75.8,52.8,76.9,53.9,76.9,55.3z"/>
		</g>
		<g>
			<path class="st1" d="M91.2,64.2c0,1.4-1.1,2.5-2.5,2.5c-1.4,0-2.5-1.1-2.5-2.5c0-1.4,1.1-2.5,2.5-2.5
				C90.1,61.7,91.2,62.8,91.2,64.2z"/>
		</g>
		<g>
			<circle class="st1" cx="102.8" cy="50.2" r="2.5"/>
		</g>
		<g>
			<circle class="st1" cx="117" cy="51.7" r="2.5"/>
		</g>
		<g>
			<path class="st1" d="M134,46.6c0,1.4-1.1,2.5-2.5,2.5c-1.4,0-2.5-1.1-2.5-2.5s1.1-2.5,2.5-2.5C132.8,44.1,134,45.2,134,46.6z"/>
		</g>
		<g>
			<path class="st1" d="M148.4,12.4c0,1.4-1.1,2.5-2.5,2.5s-2.5-1.1-2.5-2.5s1.1-2.5,2.5-2.5S148.4,11,148.4,12.4z"/>
		</g>
		<g>
			<polyline class="st1" points="2.6,55 16.6,32 31.3,39 45.6,25.6 60.4,33.5 74.4,55.1 88.6,63.9 102.5,49.2 117,51.3 131.2,46.5 
				145.4,11.2 146.3,11.5 131.9,47.3 117.1,52.3 102.9,50.3 88.7,65.2 73.7,55.7 59.7,34.2 45.8,26.9 31.5,40.2 17,33.3 2.9,56.5 
							"/>
		</g>
	</g>
	<g>
		<linearGradient id="SVGID_2_" gradientUnits="userSpaceOnUse" x1="45.4395" y1="100.5464" x2="45.4395" y2="26.8628">
			<stop  offset="0" style="stop-color:#401C69;stop-opacity:0.5"/>
			<stop  offset="0.3761" style="stop-color:#8973A2;stop-opacity:0.6881"/>
			<stop  offset="1" style="stop-color:#FFFFFF"/>
		</linearGradient>
		<rect x="41" y="26.9" class="st2" width="8.9" height="73.7"/>
		<linearGradient id="SVGID_3_" gradientUnits="userSpaceOnUse" x1="145.8728" y1="100.5464" x2="145.8728" y2="12.3731">
			<stop  offset="0" style="stop-color:#401C69;stop-opacity:0.5"/>
			<stop  offset="0.3761" style="stop-color:#8973A2;stop-opacity:0.6881"/>
			<stop  offset="1" style="stop-color:#FFFFFF"/>
		</linearGradient>
		<rect x="141.4" y="12.4" class="st3" width="8.9" height="88.2"/>
		<linearGradient id="SVGID_4_" gradientUnits="userSpaceOnUse" x1="88.6895" y1="100.5464" x2="88.6895" y2="63.7046">
			<stop  offset="0" style="stop-color:#401C69;stop-opacity:0.5"/>
			<stop  offset="0.3761" style="stop-color:#8973A2;stop-opacity:0.6881"/>
			<stop  offset="1" style="stop-color:#FFFFFF"/>
		</linearGradient>
		<rect x="84.3" y="63.7" class="st4" width="8.9" height="36.8"/>
	</g>
</g>
</svg>
