<?xml version="1.0" encoding="iso-8859-1"?>
<!-- Generator: Adobe Illustrator 22.0.1, SVG Export Plug-In . SVG Version: 6.00 Build 0)  -->
<svg version="1.1" id="Layer_1" xmlns="http://www.w3.org/2000/svg" xmlns:xlink="http://www.w3.org/1999/xlink" x="0px" y="0px"
	 viewBox="0 0 500 500" style="enable-background:new 0 0 500 500;" xml:space="preserve">
<path d="M316.902,56.13H183.735c-14.514,0-26.279,11.766-26.279,26.279c0,5.343,0,330.442,0,335.182
	c0,14.514,11.766,26.279,26.279,26.279h133.167c14.514,0,26.279-11.766,26.279-26.279c0-4.75,0-329.829,0-335.182
	C343.181,67.895,331.416,56.13,316.902,56.13z M340.631,416.67c0,13.614-11.036,24.65-24.65,24.65H184.656
	c-13.614,0-24.65-11.036-24.65-24.65c0-4.727,0-328.015,0-333.34c0-13.614,11.036-24.65,24.65-24.65h131.325
	c13.614,0,24.65,11.036,24.65,24.65C340.631,88.641,340.631,411.952,340.631,416.67z"/>
<g style="opacity:0.7;">
	<path style="fill:#FFFFFF;" d="M164.469,65.197c5.349-4.779,12.272-8.5,20.4-8.394l126.279,0.247
		c16.429,0.991,30.892,9.984,31.449,29.096c0,2.11,1.133-16.013-10.607-23.959c-5.577-4.001-13.817-5.751-18.77-5.845
		c-8.106-0.154-115.099-0.316-128.206,0.001C174.031,56.608,168.875,61.044,164.469,65.197z"/>
</g>
<g>
	<path style="fill:#1A1A1A;" d="M315.981,58.68H184.656c-13.614,0-24.65,11.036-24.65,24.65c0,5.311,0,328.623,0,333.34
		c0,13.614,11.036,24.65,24.65,24.65h131.325c13.614,0,24.65-11.036,24.65-24.65c0-4.727,0-328.015,0-333.34
		C340.631,69.716,329.595,58.68,315.981,58.68z M339.356,415.926c0,13.32-10.798,24.119-24.119,24.119H185.4
		c-13.32,0-24.119-10.798-24.119-24.119c0-4.702,0-326.55,0-331.853c0-13.32,10.798-24.119,24.119-24.119h129.837
		c13.32,0,24.119,10.798,24.119,24.119C339.356,89.371,339.356,411.232,339.356,415.926z"/>
	<path d="M315.981,441.445H184.656c-13.661,0-24.775-11.114-24.775-24.775V83.33c0-13.661,11.114-24.775,24.775-24.775h131.325
		c13.661,0,24.775,11.114,24.775,24.775v333.34C340.756,430.331,329.643,441.445,315.981,441.445z M184.656,58.805
		c-13.523,0-24.525,11.002-24.525,24.525v333.34c0,13.523,11.002,24.525,24.525,24.525h131.325
		c13.523,0,24.525-11.002,24.525-24.525V83.33c0-13.523-11.002-24.525-24.525-24.525H184.656z M315.237,440.17H185.4
		c-13.368,0-24.244-10.875-24.244-24.243V84.074c0-13.368,10.875-24.244,24.244-24.244h129.837
		c13.368,0,24.244,10.876,24.244,24.244v331.853C339.481,429.295,328.605,440.17,315.237,440.17z M185.4,60.08
		c-13.23,0-23.994,10.764-23.994,23.994v331.853c0,13.23,10.764,23.993,23.994,23.993h129.837c13.23,0,23.994-10.764,23.994-23.993
		V84.074c0-13.23-10.764-23.994-23.994-23.994H185.4z"/>
</g>
<g style="opacity:0.5;">
	<path style="fill:#FFFFFF;" d="M164.469,434.803c5.349,4.779,12.272,8.5,20.4,8.394l126.279-0.247
		c16.429-0.991,30.892-9.984,31.449-29.096c0-2.11,1.133,16.013-10.607,23.959c-5.577,4.001-13.817,5.751-18.77,5.845
		c-8.106,0.154-115.099,0.316-128.206-0.001C174.031,443.392,168.875,438.956,164.469,434.803z"/>
</g>
<g>
	
		<linearGradient id="SVGID_1_" gradientUnits="userSpaceOnUse" x1="-332.0593" y1="470.2539" x2="-290.5794" y2="470.2539" gradientTransform="matrix(0 1 -1 0 813.7326 469.2998)">
		<stop  offset="0" style="stop-color:#3B3B3B"/>
		<stop  offset="0.0185" style="stop-color:#E6E6E6"/>
		<stop  offset="0.0382" style="stop-color:#333333"/>
		<stop  offset="0.0821" style="stop-color:#000000"/>
		<stop  offset="0.1053" style="stop-color:#666666"/>
		<stop  offset="0.9049" style="stop-color:#313131"/>
		<stop  offset="0.9391" style="stop-color:#000000"/>
		<stop  offset="0.9646" style="stop-color:#333333"/>
		<stop  offset="0.9829" style="stop-color:#CCCCCC"/>
		<stop  offset="1" style="stop-color:#2C2C2C"/>
	</linearGradient>
	<rect x="343.181" y="137.24" style="fill:url(#SVGID_1_);" width="0.595" height="41.48"/>
	
		<linearGradient id="SVGID_2_" gradientUnits="userSpaceOnUse" x1="-332.0521" y1="469.8076" x2="-290.578" y2="469.8076" gradientTransform="matrix(0 1 -1 0 813.7326 469.2998)">
		<stop  offset="0" style="stop-color:#A0A0A0"/>
		<stop  offset="0.064" style="stop-color:#333333"/>
		<stop  offset="0.186" style="stop-color:#8A8A8A"/>
		<stop  offset="0.8064" style="stop-color:#8A8A8A"/>
		<stop  offset="0.9191" style="stop-color:#333333"/>
		<stop  offset="1" style="stop-color:#A0A0A0"/>
	</linearGradient>
	<path style="fill:url(#SVGID_2_);" d="M343.776,178.722v-41.474l0.298,0.362c-0.151,2.968-0.14,37.789,0,40.75L343.776,178.722z"/>
</g>
<g>
	
		<linearGradient id="SVGID_3_" gradientUnits="userSpaceOnUse" x1="-332.0593" y1="923.6205" x2="-304.1794" y2="923.6205" gradientTransform="matrix(0 1 1 0 -767.0992 469.2998)">
		<stop  offset="0" style="stop-color:#3B3B3B"/>
		<stop  offset="0.0185" style="stop-color:#E6E6E6"/>
		<stop  offset="0.0382" style="stop-color:#333333"/>
		<stop  offset="0.0821" style="stop-color:#000000"/>
		<stop  offset="0.1053" style="stop-color:#666666"/>
		<stop  offset="0.9049" style="stop-color:#313131"/>
		<stop  offset="0.9391" style="stop-color:#000000"/>
		<stop  offset="0.9646" style="stop-color:#333333"/>
		<stop  offset="0.9829" style="stop-color:#CCCCCC"/>
		<stop  offset="1" style="stop-color:#2C2C2C"/>
	</linearGradient>
	<rect x="156.224" y="137.24" style="fill:url(#SVGID_3_);" width="0.595" height="27.88"/>
	
		<linearGradient id="SVGID_4_" gradientUnits="userSpaceOnUse" x1="-332.0521" y1="923.1743" x2="-304.178" y2="923.1743" gradientTransform="matrix(0 1 1 0 -767.0992 469.2998)">
		<stop  offset="0" style="stop-color:#A0A0A0"/>
		<stop  offset="0.064" style="stop-color:#333333"/>
		<stop  offset="0.186" style="stop-color:#8A8A8A"/>
		<stop  offset="0.8064" style="stop-color:#8A8A8A"/>
		<stop  offset="0.9191" style="stop-color:#333333"/>
		<stop  offset="1" style="stop-color:#A0A0A0"/>
	</linearGradient>
	<path style="fill:url(#SVGID_4_);" d="M156.224,165.122v-27.874l-0.298,0.362c0.15,2.968,0.14,24.189,0,27.15L156.224,165.122z"/>
	<linearGradient id="SVGID_5_" gradientUnits="userSpaceOnUse" x1="157.1375" y1="165.129" x2="157.1375" y2="137.2477">
		<stop  offset="0" style="stop-color:#353540"/>
		<stop  offset="0.0531" style="stop-color:#000000"/>
		<stop  offset="0.5184" style="stop-color:#333333"/>
		<stop  offset="0.9646" style="stop-color:#000000"/>
		<stop  offset="1" style="stop-color:#262C31"/>
	</linearGradient>
	<rect x="156.819" y="137.248" style="fill:url(#SVGID_5_);" width="0.637" height="27.881"/>
</g>
<g>
	
		<linearGradient id="SVGID_6_" gradientUnits="userSpaceOnUse" x1="-297.1031" y1="923.6205" x2="-269.2231" y2="923.6205" gradientTransform="matrix(0 1 1 0 -767.0992 469.2998)">
		<stop  offset="0" style="stop-color:#3B3B3B"/>
		<stop  offset="0.0185" style="stop-color:#E6E6E6"/>
		<stop  offset="0.0382" style="stop-color:#333333"/>
		<stop  offset="0.0821" style="stop-color:#000000"/>
		<stop  offset="0.1053" style="stop-color:#666666"/>
		<stop  offset="0.9049" style="stop-color:#313131"/>
		<stop  offset="0.9391" style="stop-color:#000000"/>
		<stop  offset="0.9646" style="stop-color:#333333"/>
		<stop  offset="0.9829" style="stop-color:#CCCCCC"/>
		<stop  offset="1" style="stop-color:#2C2C2C"/>
	</linearGradient>
	<rect x="156.224" y="172.197" style="fill:url(#SVGID_6_);" width="0.595" height="27.88"/>
	
		<linearGradient id="SVGID_7_" gradientUnits="userSpaceOnUse" x1="-297.0958" y1="923.1743" x2="-269.2218" y2="923.1743" gradientTransform="matrix(0 1 1 0 -767.0992 469.2998)">
		<stop  offset="0" style="stop-color:#A0A0A0"/>
		<stop  offset="0.064" style="stop-color:#333333"/>
		<stop  offset="0.186" style="stop-color:#8A8A8A"/>
		<stop  offset="0.8064" style="stop-color:#8A8A8A"/>
		<stop  offset="0.9191" style="stop-color:#333333"/>
		<stop  offset="1" style="stop-color:#A0A0A0"/>
	</linearGradient>
	<path style="fill:url(#SVGID_7_);" d="M156.224,200.078v-27.874l-0.298,0.362c0.15,2.968,0.14,24.189,0,27.15L156.224,200.078z"/>
	<linearGradient id="SVGID_8_" gradientUnits="userSpaceOnUse" x1="157.1375" y1="200.0853" x2="157.1375" y2="172.204">
		<stop  offset="0" style="stop-color:#353540"/>
		<stop  offset="0.0531" style="stop-color:#000000"/>
		<stop  offset="0.5184" style="stop-color:#333333"/>
		<stop  offset="0.9646" style="stop-color:#000000"/>
		<stop  offset="1" style="stop-color:#262C31"/>
	</linearGradient>
	<rect x="156.819" y="172.204" style="fill:url(#SVGID_8_);" width="0.637" height="27.881"/>
</g>
<g>
	
		<linearGradient id="SVGID_9_" gradientUnits="userSpaceOnUse" x1="-365.0677" y1="923.6205" x2="-349.9377" y2="923.6205" gradientTransform="matrix(0 1 1 0 -767.0992 469.2998)">
		<stop  offset="0" style="stop-color:#3B3B3B"/>
		<stop  offset="0.0185" style="stop-color:#E6E6E6"/>
		<stop  offset="0.0382" style="stop-color:#333333"/>
		<stop  offset="0.0821" style="stop-color:#000000"/>
		<stop  offset="0.1053" style="stop-color:#666666"/>
		<stop  offset="0.9049" style="stop-color:#313131"/>
		<stop  offset="0.9391" style="stop-color:#000000"/>
		<stop  offset="0.9646" style="stop-color:#333333"/>
		<stop  offset="0.9829" style="stop-color:#CCCCCC"/>
		<stop  offset="1" style="stop-color:#2C2C2C"/>
	</linearGradient>
	<rect x="156.224" y="104.232" style="fill:url(#SVGID_9_);" width="0.595" height="15.13"/>
	
		<linearGradient id="SVGID_10_" gradientUnits="userSpaceOnUse" x1="-365.0604" y1="923.1743" x2="-349.9364" y2="923.1743" gradientTransform="matrix(0 1 1 0 -767.0992 469.2998)">
		<stop  offset="0" style="stop-color:#A0A0A0"/>
		<stop  offset="0.064" style="stop-color:#333333"/>
		<stop  offset="0.186" style="stop-color:#8A8A8A"/>
		<stop  offset="0.8064" style="stop-color:#8A8A8A"/>
		<stop  offset="0.9191" style="stop-color:#333333"/>
		<stop  offset="1" style="stop-color:#A0A0A0"/>
	</linearGradient>
	<path style="fill:url(#SVGID_10_);" d="M156.224,119.363v-15.124l-0.298,0.362c0.15,2.968,0.14,11.439,0,14.4L156.224,119.363z"/>
	<linearGradient id="SVGID_11_" gradientUnits="userSpaceOnUse" x1="157.1375" y1="119.3707" x2="157.1375" y2="104.2394">
		<stop  offset="0" style="stop-color:#353540"/>
		<stop  offset="0.0531" style="stop-color:#000000"/>
		<stop  offset="0.5184" style="stop-color:#333333"/>
		<stop  offset="0.9646" style="stop-color:#000000"/>
		<stop  offset="1" style="stop-color:#262C31"/>
	</linearGradient>
	<rect x="156.819" y="104.239" style="fill:url(#SVGID_11_);" width="0.637" height="15.131"/>
</g>
<path d="M259.51,443.176h-18.383c-0.373,0-0.7,0.047-0.802,0.114l-0.811,0.35c-0.152,0.1,0.248,0.201,0.802,0.201h20.005
	c0.554,0,0.955-0.1,0.802-0.201l-0.811-0.35C260.21,443.222,259.883,443.176,259.51,443.176z"/>
<path d="M266.725,77.63h-33.451c-3.764,0-6.815-3.051-6.815-6.815l0,0c0-3.764,3.051-6.815,6.815-6.815h33.451
	c3.764,0,6.815,3.051,6.815,6.815l0,0C273.54,74.579,270.489,77.63,266.725,77.63z"/>
<g>
	<linearGradient id="SVGID_12_" gradientUnits="userSpaceOnUse" x1="264.8415" y1="73.6065" x2="264.8415" y2="67.7452">
		<stop  offset="0" style="stop-color:#666666"/>
		<stop  offset="1" style="stop-color:#010104"/>
	</linearGradient>
	<circle style="fill:url(#SVGID_12_);" cx="264.841" cy="70.815" r="2.975"/>
	<image style="overflow:visible;" width="6" height="6" xlink:href="BC636225.png"  transform="matrix(1 0 0 1 262 68)">
	</image>
	
		<linearGradient id="SVGID_13_" gradientUnits="userSpaceOnUse" x1="261.4202" y1="-342.4065" x2="261.4202" y2="-345.7556" gradientTransform="matrix(-1 0 0 -1 526.2617 -273.1865)">
		<stop  offset="0" style="stop-color:#0B131C"/>
		<stop  offset="1" style="stop-color:#354039"/>
	</linearGradient>
	<circle style="fill:url(#SVGID_13_);" cx="264.841" cy="70.815" r="1.7"/>
	<g id="Camera_1_">
		<linearGradient id="SVGID_14_" gradientUnits="userSpaceOnUse" x1="265.8923" y1="71.8682" x2="263.7872" y2="69.7631">
			<stop  offset="0" style="stop-color:#231F20"/>
			<stop  offset="0.0832" style="stop-color:#222326"/>
			<stop  offset="0.1958" style="stop-color:#1F2C37"/>
			<stop  offset="0.3254" style="stop-color:#1A3D54"/>
			<stop  offset="0.4675" style="stop-color:#13537C"/>
			<stop  offset="0.62" style="stop-color:#0B71AE"/>
			<stop  offset="0.7788" style="stop-color:#0094EC"/>
			<stop  offset="0.7847" style="stop-color:#0095EE"/>
			<stop  offset="0.7998" style="stop-color:#0488D6"/>
			<stop  offset="0.8384" style="stop-color:#0D689F"/>
			<stop  offset="0.8761" style="stop-color:#154E72"/>
			<stop  offset="0.912" style="stop-color:#1B394E"/>
			<stop  offset="0.9455" style="stop-color:#1F2B35"/>
			<stop  offset="0.9758" style="stop-color:#222225"/>
			<stop  offset="1" style="stop-color:#231F20"/>
		</linearGradient>
		<path style="fill:url(#SVGID_14_);" d="M266.328,70.817c0,0.822-0.666,1.487-1.488,1.487c-0.825,0-1.487-0.665-1.487-1.487
			c0-0.825,0.662-1.488,1.487-1.488C265.662,69.328,266.328,69.992,266.328,70.817z"/>
		<radialGradient id="SVGID_15_" cx="264.8407" cy="70.8158" r="1.4876" gradientUnits="userSpaceOnUse">
			<stop  offset="0" style="stop-color:#231F20"/>
			<stop  offset="0.2019" style="stop-color:#175168"/>
			<stop  offset="0.3838" style="stop-color:#0D78A2"/>
			<stop  offset="0.5384" style="stop-color:#0695CB"/>
			<stop  offset="0.6597" style="stop-color:#02A7E5"/>
			<stop  offset="0.7326" style="stop-color:#00ADEE"/>
			<stop  offset="0.7594" style="stop-color:#02A6E4"/>
			<stop  offset="0.8055" style="stop-color:#0693C8"/>
			<stop  offset="0.8651" style="stop-color:#0E749C"/>
			<stop  offset="0.9352" style="stop-color:#184A5F"/>
			<stop  offset="1" style="stop-color:#231F20"/>
		</radialGradient>
		<path style="fill:url(#SVGID_15_);" d="M266.328,70.817c0,0.822-0.666,1.487-1.488,1.487c-0.825,0-1.487-0.665-1.487-1.487
			c0-0.825,0.662-1.488,1.487-1.488C265.662,69.328,266.328,69.992,266.328,70.817z"/>
	</g>
	<radialGradient id="SVGID_16_" cx="265.6578" cy="71.5919" r="0.5313" gradientUnits="userSpaceOnUse">
		<stop  offset="0" style="stop-color:#CCCCCC"/>
		<stop  offset="0.0241" style="stop-color:#C4C4C4"/>
		<stop  offset="0.2198" style="stop-color:#898989"/>
		<stop  offset="0.4085" style="stop-color:#585858"/>
		<stop  offset="0.5855" style="stop-color:#323232"/>
		<stop  offset="0.7482" style="stop-color:#161616"/>
		<stop  offset="0.8915" style="stop-color:#060606"/>
		<stop  offset="1" style="stop-color:#000000"/>
	</radialGradient>
	<path style="fill:url(#SVGID_16_);" d="M266.189,71.592c0-0.293-0.238-0.531-0.531-0.531c-0.293,0-0.531,0.238-0.531,0.531
		c0,0.293,0.238,0.531,0.531,0.531C265.951,72.123,266.189,71.885,266.189,71.592z"/>
</g>
</svg>
