<?xml version="1.0" encoding="utf-8"?>
<!-- Generator: Adobe Illustrator 22.0.1, SVG Export Plug-In . SVG Version: 6.00 Build 0)  -->
<svg version="1.1" id="_x3C_레이어_x3E_" xmlns="http://www.w3.org/2000/svg" xmlns:xlink="http://www.w3.org/1999/xlink"
	 x="0px" y="0px" viewBox="0 0 72 59.8" style="enable-background:new 0 0 72 59.8;" xml:space="preserve">
<style type="text/css">
	.st0{fill:#9607FF;}
</style>
<g>
	<polygon class="st0" points="0,55.4 26.3,33.1 0,11.1 	"/>
	<path class="st0" d="M40.8,36.9c-1.4,0.5-2.9,0.8-4.4,0.9c0,0,0,0-0.1,0c-1.7,0-3.4-0.4-4.9-1l-27.2,23h63.6L40.8,36.9z"/>
	<polygon class="st0" points="45.9,33.4 72,55.4 72,11.2 	"/>
	<path class="st0" d="M31.8,29.9c1.2,1.2,2.8,1.9,4.5,1.9c1.7,0,3.3-0.7,4.5-1.9l0.2-0.2L72,3.4v0C72,1.5,70.5,0,68.7,0H3.3
		C1.5,0,0,1.5,0,3.3l0,0L31.8,29.9z"/>
</g>
</svg>
