<?xml version="1.0" encoding="utf-8"?>
<!-- Generator: Adobe Illustrator 22.0.1, SVG Export Plug-In . SVG Version: 6.00 Build 0)  -->
<svg version="1.1" id="_x3C_레이어_x3E_" xmlns="http://www.w3.org/2000/svg" xmlns:xlink="http://www.w3.org/1999/xlink"
	 x="0px" y="0px" viewBox="0 0 76.3 72" style="enable-background:new 0 0 76.3 72;" xml:space="preserve">
<style type="text/css">
	.st0{fill:#9607FF;}
</style>
<path class="st0" d="M68.4,26.5v-2.8C68.4,10.6,57.8,0,44.8,0H31.6C18.6,0,8,10.6,8,23.6v2.8c-4.7,1.4-8,5.4-8,9.9v6.4
	c0,5.4,4.7,9.8,10.6,10.4c2.9,5.6,8,9.8,13.9,11.7c0.5,4,3.9,7.2,8,7.2h12.9c4.2,0,7.7-3,8.2-7c0.3-2.3-0.4-4.6-1.9-6.4
	c-1.5-1.7-3.8-2.7-6.1-2.7H32.5c-0.8,0-1.7,0.1-2.5,0.4c-0.2,0-0.3-0.1-0.5-0.1c-6.8-1-12-6.9-12-13.8V23.6c0-7.7,6.3-14,14-14h13.2
	c7.7,0,14,6.3,14,14v24.7c0,2.7,2.2,4.8,4.8,4.8h2.1c0.5,0,0.9,0,1.4-0.1c5.4-1,9.4-5.4,9.4-10.3v-6.4
	C76.3,31.9,73.1,27.9,68.4,26.5z"/>
</svg>
